<svg width="230" height="79" viewBox="0 0 230 79" fill="none" xmlns="http://www.w3.org/2000/svg">
<path d="M77.9563 59V32.0909H87.5479C89.6415 32.0909 91.3758 32.4719 92.7511 33.234C94.1263 33.9961 95.1555 35.0385 95.8388 36.3611C96.522 37.6751 96.8636 39.1554 96.8636 40.8022C96.8636 42.4577 96.5176 43.9469 95.8256 45.2695C95.1424 46.5835 94.1088 47.6258 92.7248 48.3967C91.3496 49.1587 89.6196 49.5398 87.5348 49.5398H80.9389V46.0973H87.1669C88.4896 46.0973 89.5626 45.8696 90.386 45.4141C91.2094 44.9498 91.8138 44.3191 92.1992 43.522C92.5846 42.7249 92.7773 41.8183 92.7773 40.8022C92.7773 39.7861 92.5846 38.8839 92.1992 38.0955C91.8138 37.3072 91.205 36.6896 90.3729 36.2429C89.5495 35.7962 88.4633 35.5728 87.1143 35.5728H82.0163V59H77.9563ZM111.415 59V32.0909H121.007C123.092 32.0909 124.822 32.45 126.197 33.1683C127.581 33.8866 128.615 34.8808 129.298 36.1509C129.981 37.4123 130.323 38.8707 130.323 40.5263C130.323 42.1731 129.977 43.6228 129.285 44.8754C128.601 46.1192 127.568 47.0871 126.184 47.7791C124.809 48.4711 123.079 48.8171 120.994 48.8171H113.728V45.3221H120.626C121.94 45.3221 123.008 45.1338 123.832 44.7571C124.664 44.3804 125.273 43.833 125.658 43.1147C126.044 42.3964 126.236 41.5336 126.236 40.5263C126.236 39.5102 126.039 38.6299 125.645 37.8853C125.26 37.1407 124.651 36.5714 123.819 36.1772C122.995 35.7743 121.914 35.5728 120.573 35.5728H115.475V59H111.415ZM124.699 46.8594L131.347 59H126.722L120.205 46.8594H124.699ZM149.115 32.0909V59H145.055V32.0909H149.115ZM186.539 32.0909V59H182.807L169.129 39.2649H168.88V59H164.82V32.0909H168.577L182.268 51.8523H182.518V32.0909H186.539ZM205.078 32.0909L211.516 42.6154H211.727L218.165 32.0909H222.869L214.486 45.5455L222.921 59H218.191L211.727 48.62H211.516L205.052 59H200.322L208.902 45.5455L200.374 32.0909H205.078Z" fill="white"/>
<path d="M6.32457 46.9808V41.8104L36.978 26.9453V33.9854L14.3572 44.3033L14.565 43.8878V44.8803L14.3572 44.4879L36.978 54.7827V61.8459L6.32457 46.9808ZM65.9348 13.5114L50.7005 70.1094H44.5375L59.7718 13.5114H65.9348Z" fill="white"/>
</svg>
